<?xml version="1.0" encoding="UTF-8"?>
<svg version="1.1" xmlns="http://www.w3.org/2000/svg" width="2560" height="1713">
<path d="M0 0 C844.8 0 1689.6 0 2560 0 C2560 565.29 2560 1130.58 2560 1713 C1715.2 1713 870.4 1713 0 1713 C0 1147.71 0 582.42 0 0 Z " fill="#5430C3" transform="translate(0,0)"/>
<path d="M0 0 C1.12619247 -0.00970322 2.25238495 -0.01940643 3.41270447 -0.02940369 C7.04079783 -0.05425289 10.66870513 -0.06691963 14.296875 -0.07421875 C16.15017929 -0.07814636 16.15017929 -0.07814636 18.04092407 -0.08215332 C36.75292047 -0.08640898 54.64860492 0.70003467 73.046875 4.23828125 C74.93611214 4.57730129 76.82543207 4.91586031 78.71484375 5.25390625 C88.12212526 6.99631489 97.43940543 9.16962179 106.68774414 11.61669922 C108.57527942 12.1140256 110.46576589 12.60014604 112.35717773 13.08251953 C121.21438041 15.37702457 129.85846955 18.04386782 138.484375 21.11328125 C139.13995392 21.34649078 139.79553284 21.57970032 140.47097778 21.81997681 C175.17988683 34.23555167 208.68039944 50.53208915 240.23095703 69.55029297 C243.10352061 71.27223718 245.99194657 72.96412737 248.88671875 74.6484375 C259.52295693 80.8463131 269.88768735 87.28915644 280.046875 94.23828125 C282.02441529 95.55323042 284.00352574 96.86582203 285.984375 98.17578125 C298.77158301 106.71196817 311.32518068 115.54074318 323.76025391 124.58105469 C326.03138527 126.22705508 328.30931363 127.86314581 330.58984375 129.49609375 C340.23992559 136.4128011 349.73601045 143.50161472 359.13183594 150.75976562 C360.8743115 152.10505273 362.61981156 153.44624402 364.3671875 154.78515625 C373.63024537 161.88915552 382.84197691 169.05917154 392.046875 176.23828125 C392.99312744 176.97546387 392.99312744 176.97546387 393.95849609 177.72753906 C401.40439219 183.53212455 408.76585371 189.43097993 416.08203125 195.39819336 C422.67043079 200.7640115 429.34904863 206.01014935 436.046875 211.23828125 C443.45880192 217.02381964 450.8266851 222.85296148 458.109375 228.80078125 C463.94478614 233.56455304 469.8520451 238.2110313 475.83984375 242.78125 C481.03448244 246.74873319 486.15599852 250.81000977 491.28955078 254.85595703 C493.01708402 256.21484744 494.74812965 257.56911834 496.48046875 258.921875 C505.42827134 265.91504817 514.25387009 273.05173613 523.046875 280.23828125 C524.06007813 281.06585937 525.07328125 281.8934375 526.1171875 282.74609375 C527.90722659 284.20974395 529.6963324 285.6745365 531.484375 287.140625 C533.21029291 288.55345719 534.93953402 289.96223834 536.671875 291.3671875 C542.4804518 296.08665615 548.18576962 300.91110861 553.85473633 305.79614258 C557.37948453 308.82747421 560.93709483 311.80798911 564.546875 314.73828125 C568.77480363 318.17036449 572.92207577 321.68387965 577.046875 325.23828125 C582.96803059 330.33796776 588.97727845 335.31576619 595.046875 340.23828125 C596.77661776 341.65424445 598.50577061 343.07092855 600.234375 344.48828125 C601.141875 345.22949219 602.049375 345.97070312 602.984375 346.734375 C605.23776157 348.57674846 607.48712772 350.42361152 609.734375 352.2734375 C618.27781586 359.28555681 626.97610765 366.03047401 635.85742188 372.60791016 C638.22681703 374.37227466 640.58304582 376.15325081 642.9375 377.9375 C653.12768347 385.65163735 663.40241426 393.16252642 674.046875 400.23828125 C674.80935547 400.74568848 675.57183594 401.2530957 676.35742188 401.77587891 C708.13311749 422.84232014 741.6529166 442.490147 777.98925781 454.54394531 C780.13090384 455.2666365 782.25726624 456.02427544 784.3828125 456.79296875 C785.47565552 457.18693848 785.47565552 457.18693848 786.59057617 457.58886719 C787.94062165 458.07655017 789.28986364 458.56646883 790.63793945 459.05957031 C825.01012254 471.34564872 862.70187274 475.64725037 899.046875 476.23828125 C899.89088867 476.25874512 900.73490234 476.27920898 901.60449219 476.30029297 C904.04365606 476.3580049 906.48221892 476.39635112 908.921875 476.42578125 C909.58574219 476.43899414 910.24960938 476.45220703 910.93359375 476.46582031 C925.50545356 476.48671686 939.62249613 473.75219812 953.6706543 470.14453125 C956.23940276 469.48699427 958.81331092 468.85373569 961.38867188 468.22265625 C971.67798407 465.65420404 981.31418329 462.45748247 991.046875 458.23828125 C992.09157959 457.79983887 993.13628418 457.36139648 994.21264648 456.90966797 C1051.82445669 432.62811689 1102.13851896 395.03826474 1149.4140625 354.6328125 C1151.13281204 353.16488526 1152.85536496 351.70149884 1154.578125 350.23828125 C1161.02293629 344.75266512 1167.36740506 339.18533884 1173.60546875 333.46484375 C1175.70842333 331.54694918 1177.83356656 329.6645208 1179.984375 327.80078125 C1183.8855718 324.41017053 1187.69029564 320.91730526 1191.49291992 317.41723633 C1194.57329988 314.58340233 1197.67364494 311.77500168 1200.796875 308.98828125 C1207.27293351 303.17431179 1213.59067936 297.19142374 1219.92822266 291.22753906 C1222.02945418 289.25463812 1224.13670202 287.28838981 1226.24609375 285.32421875 C1232.26706074 279.71231958 1238.26261689 274.09513655 1244.046875 268.23828125 C1247.64344568 264.59863787 1251.32851644 261.16858734 1255.21875 257.84765625 C1257.66036243 255.69820257 1259.91247173 253.38551599 1262.18847656 251.06347656 C1263.90723654 249.37542485 1265.67510686 247.82228108 1267.515625 246.26953125 C1273.31656904 241.22639223 1278.65030384 235.70480796 1284.046875 230.23828125 C1296.34099474 217.78479329 1296.34099474 217.78479329 1302.47460938 212.59179688 C1303.89092409 211.37253464 1305.22540843 210.05974782 1306.546875 208.73828125 C1308.64880329 206.63635296 1310.78801264 204.72671427 1313.046875 202.80078125 C1315.8888428 200.34899084 1318.19284083 197.84403337 1320.51953125 194.890625 C1323.41306973 191.76027519 1326.88296354 189.25635483 1330.20703125 186.6015625 C1333.67738607 183.71357809 1336.79504692 180.57584359 1339.9453125 177.34765625 C1342.46519904 174.81840211 1345.11873205 172.49811806 1347.828125 170.17578125 C1350.0307877 168.25232932 1352.17983986 166.27738224 1354.32324219 164.28833008 C1359.5082185 159.4783004 1364.8197632 154.92107856 1370.33203125 150.484375 C1373.15360995 148.14997535 1375.85278212 145.71837527 1378.546875 143.23828125 C1383.36281507 138.815756 1388.33817416 134.66015115 1393.42724609 130.55761719 C1395.23672308 129.08363262 1397.02721105 127.58837871 1398.81640625 126.08984375 C1409.60630056 117.07313642 1420.71992562 108.56757993 1432.046875 100.23828125 C1433.21766602 99.37323975 1433.21766602 99.37323975 1434.41210938 98.49072266 C1449.73526399 87.18649026 1465.5742768 76.7908276 1482.046875 67.23828125 C1482.7279834 66.84286133 1483.4090918 66.44744141 1484.11083984 66.04003906 C1509.23834257 51.54848592 1534.97814097 41.49158691 1563.046875 34.23828125 C1563.95107178 33.99746826 1564.85526855 33.75665527 1565.78686523 33.50854492 C1617.38384859 20.08380936 1676.07016464 22.54837985 1728.046875 32.23828125 C1729.32900879 32.47595215 1730.61114258 32.71362305 1731.93212891 32.95849609 C1754.66898598 37.22576544 1777.03897067 42.35131902 1799.0234375 49.57861328 C1801.91627431 50.52171717 1804.82422258 51.4127568 1807.734375 52.30078125 C1808.745 52.61144531 1809.755625 52.92210937 1810.796875 53.2421875 C1812.52681538 53.77239759 1814.25693113 54.30204829 1815.98828125 54.82763672 C1823.22888371 57.0276395 1830.40866409 59.24511634 1837.40234375 62.15625 C1840.69560166 63.50371298 1844.02501585 64.74726562 1847.359375 65.98828125 C1853.82712356 68.40130598 1860.28380181 70.84220166 1866.734375 73.30078125 C1867.56428955 73.61692383 1868.3942041 73.93306641 1869.24926758 74.25878906 C1871.84913148 75.25023027 1874.44800029 76.24424998 1877.046875 77.23828125 C1877.98175247 77.5949437 1878.91662994 77.95160614 1879.87983704 78.31907654 C1887.63478215 81.28760115 1895.35548975 84.33690512 1903.06175232 87.42919922 C1905.14112383 88.26355992 1907.22096017 89.09675291 1909.30090332 89.9296875 C1914.46125731 91.99646707 1919.62084713 94.06515156 1924.78045654 96.13378906 C1929.16259159 97.89062717 1933.54502692 99.6467125 1937.92784119 101.40185547 C1939.95124996 102.21249077 1941.97423213 103.02418368 1943.99719238 103.8359375 C1951.07050085 106.6708279 1958.16038238 109.45692226 1965.27799988 112.17884827 C1968.44915593 113.39220285 1971.61239707 114.62503337 1974.7746582 115.86132812 C1978.52905167 117.3280873 1982.28764368 118.78397406 1986.046875 120.23828125 C1986.71589844 120.49754395 1987.38492188 120.75680664 1988.07421875 121.02392578 C1997.13547947 124.52217407 2006.27378704 127.71005438 2015.51489258 130.703125 C2019.75421163 132.08739245 2023.91694128 133.5572165 2028.046875 135.2421875 C2033.01709392 137.26439867 2038.05274288 138.94842245 2043.171875 140.55078125 C2044.1105542 140.84637939 2045.0492334 141.14197754 2046.01635742 141.4465332 C2061.89938165 146.41383131 2077.80146223 151.13156026 2094.04248047 154.77783203 C2097.57710863 155.5898063 2101.09273905 156.47713176 2104.609375 157.36328125 C2105.84816406 157.67523437 2107.08695313 157.9871875 2108.36328125 158.30859375 C2110.28278039 158.79304846 2112.20198216 159.27886884 2114.1171875 159.7800293 C2117.72142579 160.71182595 2121.21108577 161.49044834 2124.921875 161.80078125 C2127.35774131 162.00872106 2128.84915969 162.13942359 2131.046875 163.23828125 C2133.87579811 163.66472387 2136.69640834 164.04627014 2139.53515625 164.39453125 C2140.3893364 164.50172485 2141.24351654 164.60891846 2142.12358093 164.71936035 C2143.93999271 164.94637438 2145.75663625 165.1715404 2147.57348633 165.39501953 C2150.3107113 165.73228518 2153.04697887 166.07659605 2155.78320312 166.421875 C2160.86764453 167.05842269 2165.95539949 167.66081593 2171.046875 168.23828125 C2172.12960693 168.36187012 2173.21233887 168.48545898 2174.32788086 168.61279297 C2185.00103594 169.62413323 2195.76543734 169.388159 2206.4753418 169.36865234 C2209.9725377 169.36329937 2213.4696049 169.36861871 2216.96679688 169.375 C2232.24277247 169.38105369 2247.07375382 168.95554558 2262.171875 166.42578125 C2263.78835938 166.15858276 2263.78835938 166.15858276 2265.4375 165.88598633 C2268.64281472 165.34868882 2271.84526749 164.79721114 2275.046875 164.23828125 C2275.93213867 164.08488281 2276.81740234 163.93148437 2277.72949219 163.7734375 C2297.83321974 160.21970858 2317.32184873 154.35333404 2336.60839844 147.72753906 C2337.55618164 147.40237305 2338.50396484 147.07720703 2339.48046875 146.7421875 C2340.31634521 146.45158447 2341.15222168 146.16098145 2342.01342773 145.86157227 C2344.046875 145.23828125 2344.046875 145.23828125 2346.046875 145.23828125 C2346.046875 385.14828125 2346.046875 625.05828125 2346.046875 872.23828125 C1501.246875 872.23828125 656.446875 872.23828125 -213.953125 872.23828125 C-213.953125 611.20828125 -213.953125 350.17828125 -213.953125 81.23828125 C-207.47014569 76.70019574 -201.1196654 72.41638645 -194.328125 68.42578125 C-188.85945094 65.18577915 -183.41649015 61.9267269 -178.06665039 58.49365234 C-145.27173063 37.50112281 -108.40046716 20.04466059 -70.44580078 10.85302734 C-67.97701152 10.24417217 -65.5262852 9.58684053 -63.07421875 8.9140625 C-42.57172235 3.37890232 -21.24393471 0.15220896 0 0 Z " fill="#521DA6" transform="translate(213.953125,840.76171875)"/>
<path d="M0 0 C0.70914551 0.11746582 1.41829102 0.23493164 2.14892578 0.35595703 C6.47146897 1.08828432 10.73238046 1.99906578 15 3 C15.68739258 3.15662109 16.37478516 3.31324219 17.08300781 3.47460938 C56.16145086 12.50468785 94.445925 32.17702034 123.69921875 59.83984375 C125.61317264 61.63681573 127.56184002 63.34378991 129.5546875 65.05078125 C134.55228915 69.40851337 139.24967744 74.06361013 143.93579102 78.75048828 C145.42641615 80.23893237 146.92487017 81.71917277 148.42382812 83.19921875 C154.73452887 89.47355689 160.44569363 96.03649724 166 103 C166.93485909 104.10176066 167.8762011 105.19810568 168.828125 106.28515625 C175.89408329 114.38821487 182.18537036 122.94377852 188.38574219 131.72119141 C189.93602661 133.90969031 191.50073937 136.08702723 193.0703125 138.26171875 C220.0549967 175.80696196 241.91475026 217.11570856 263.02001953 258.15332031 C264.37210052 260.78186501 265.7274839 263.40867019 267.08544922 266.03417969 C275.6820068 282.65575102 284.18217111 299.3229756 292.53125 316.0703125 C292.85877258 316.72699228 293.18629517 317.38367207 293.52374268 318.06025124 C296.80823577 324.64575622 300.08958997 331.23277527 303.35825634 337.82615185 C310.54170045 352.30921474 317.91202068 366.65844654 325.77130127 380.78939819 C326.8449431 382.72103083 327.91124472 384.65633404 328.97216797 386.5949707 C338.16203572 403.36668153 347.9512516 419.73424225 358 436 C358.52770996 436.85722656 359.05541992 437.71445312 359.59912109 438.59765625 C373.18130449 460.60841811 387.57007077 482.24160188 403 503 C404.00017528 504.35924604 405.00017433 505.71862178 406 507.078125 C418.46812818 523.94748418 431.83467188 540.21198827 445.94921875 555.73046875 C447.85228088 557.83652418 449.71153821 559.97320469 451.5625 562.125 C454.5693627 565.58323932 457.77182589 568.7930013 461.0390625 572.00390625 C462.91661121 573.91511619 464.64809414 575.89034635 466.375 577.9375 C469.81123298 581.93859319 473.64221551 585.36805801 477.59765625 588.84765625 C479.63195469 590.67025534 481.54434528 592.53420625 483.4375 594.5 C487.04559881 598.16697222 490.99645873 601.34349195 495.00390625 604.5625 C497.54242975 606.62773945 500.02335332 608.74338075 502.49194336 610.89111328 C546.9810018 649.38421126 601.73225883 675.04532273 660 683 C660.75966064 683.1045752 661.51932129 683.20915039 662.30200195 683.31689453 C685.02989015 686.01460968 709.52652187 684.90351162 732 681 C733.68319336 680.70996094 733.68319336 680.70996094 735.40039062 680.4140625 C822.89045579 664.83034556 902.63608327 615.1885365 970.30859375 559.39160156 C972.73677601 557.39381881 975.18286415 555.41818576 977.625 553.4375 C987.67890239 545.18968786 997.45846272 536.68079182 1006.96875 527.8125 C1009.69440967 525.27268076 1012.4654068 522.78769396 1015.25 520.3125 C1019.26963632 516.71564096 1023.07279654 512.9489126 1026.859375 509.109375 C1028.80527212 507.19188514 1030.79805966 505.39799785 1032.875 503.625 C1040.24328887 497.28621257 1047.01881357 490.28344281 1053.32421875 482.89453125 C1055.69402069 480.21538454 1058.24021712 477.73358347 1060.8125 475.25 C1062.70655723 473.30182685 1064.48950195 471.31285673 1066.26953125 469.26171875 C1069.96678516 465.00549752 1073.80739472 460.90172413 1077.6875 456.8125 C1084.02686702 450.10419061 1090.31802925 443.35535364 1096.56445312 436.56054688 C1099.03924556 433.87026231 1101.51995671 431.18544318 1104 428.5 C1106.97797953 425.27474095 1109.95536885 422.04894831 1112.9296875 418.8203125 C1118.85882796 412.38656435 1124.81427198 405.97826048 1130.78857422 399.58642578 C1134.54000118 395.57065384 1138.27662887 391.5417887 1142 387.5 C1152.93832868 375.62997538 1163.98729743 363.86224127 1175.03515625 352.09423828 C1177.08750234 349.90673521 1179.13751398 347.71705849 1181.1875 345.52734375 C1193.96042594 331.90081468 1193.96042594 331.90081468 1199.91015625 326.15234375 C1201.72983332 324.27824643 1203.42142569 322.36044627 1205.12109375 320.37890625 C1210.30132647 314.41519006 1215.99314477 308.9619768 1221.6171875 303.421875 C1222.88949219 302.16117188 1222.88949219 302.16117188 1224.1875 300.875 C1224.94417969 300.12992188 1225.70085937 299.38484375 1226.48046875 298.6171875 C1228.44003962 296.58166427 1230.28252448 294.52700518 1232.11938477 292.38500977 C1236.79624757 287.00053763 1241.85653396 281.99907175 1246.90234375 276.96484375 C1247.94949136 275.91702054 1248.99649066 274.8690491 1250.04335022 273.82093811 C1252.22609326 271.63673012 1254.41061025 269.45431668 1256.59643555 267.27319336 C1259.37786424 264.49746119 1262.15477776 261.71726218 1264.93036556 258.93569088 C1267.08801021 256.77440797 1269.24806147 254.61554286 1271.40881538 252.45736885 C1272.4328577 251.43398679 1273.45617674 250.40988039 1274.47871208 249.3849926 C1279.62918434 244.22526964 1284.81962309 239.16881585 1290.35670471 234.4209137 C1292.32699246 232.71725833 1294.17692058 230.92220378 1296 229.0625 C1296.66 228.39476562 1297.32 227.72703125 1298 227.0390625 C1298.66 226.36617187 1299.32 225.69328125 1300 225 C1304.6000656 220.31008937 1309.27152803 215.81544168 1314.25 211.52734375 C1316.26250971 209.77088996 1318.14491895 207.92133395 1320 206 C1323.08245505 202.87589016 1326.27509772 199.97298912 1329.6015625 197.11328125 C1332.79146953 194.30263026 1335.89255891 191.40120586 1339 188.5 C1344.41865283 183.45005948 1349.89776635 178.50404578 1355.53027344 173.69287109 C1357.31220146 172.17065933 1359.09368601 170.64793026 1360.875 169.125 C1361.48384033 168.60502441 1362.09268066 168.08504883 1362.7199707 167.54931641 C1366.25700261 164.52055224 1369.74426485 161.44820537 1373.1875 158.3125 C1377.29806169 154.58771918 1381.52857631 151.05127265 1385.84375 147.56640625 C1388.19908675 145.66220474 1390.52530018 143.72627639 1392.84375 141.77734375 C1402.8960974 133.35226003 1413.2312068 125.48674112 1424 118 C1424.7120459 117.50290527 1425.4240918 117.00581055 1426.15771484 116.49365234 C1457.78902551 94.54052454 1492.35525842 76.3270453 1530.02050781 67.47460938 C1531.73803098 67.06281053 1533.44456878 66.60570083 1535.1484375 66.140625 C1597.2324673 49.82900323 1663.46209738 70.18073819 1717.31738281 101.40966797 C1743.77113559 117.09220761 1768.77269278 135.09535876 1793 154 C1793.81597656 154.63470215 1793.81597656 154.63470215 1794.6484375 155.28222656 C1803.5935305 162.24352878 1812.41353213 169.35277977 1821.19140625 176.5234375 C1822.7923548 177.83047541 1824.39597976 179.13423356 1826 180.4375 C1831.44549236 184.8698775 1836.82184658 189.37665484 1842.17358398 193.92114258 C1846.38706072 197.49423551 1850.64693397 201.0062115 1854.9296875 204.49609375 C1858.75219309 207.61342974 1862.56538487 210.7419294 1866.375 213.875 C1867.10726807 214.47715332 1867.83953613 215.07930664 1868.59399414 215.69970703 C1872.99217391 219.32392044 1877.35346507 222.9869783 1881.6875 226.6875 C1886.55280541 230.83472642 1891.52646139 234.81919219 1896.57250977 238.74389648 C1900.31289038 241.65763404 1904.00087034 244.62583619 1907.6628418 247.63745117 C1916.79018859 255.1385244 1926.19514407 262.22755014 1935.68212891 269.265625 C1937.69450091 270.77140662 1939.686414 272.29781707 1941.66796875 273.84375 C1962.58645396 290.07506939 1985.32368493 304.37891865 2008 318 C2009.670625 319.01707031 2009.670625 319.01707031 2011.375 320.0546875 C2018.66674119 324.41809646 2026.1994255 328.23359413 2033.83740234 331.9453125 C2036.00821068 333.00400431 2038.16997433 334.0798196 2040.33203125 335.15625 C2066.74381106 348.14928087 2094.27006621 356.92445411 2123 363 C2123.76151367 363.16951172 2124.52302734 363.33902344 2125.30761719 363.51367188 C2138.84887274 366.41738708 2152.18579141 367.33077696 2165.99072266 367.26074219 C2168.49796715 367.2500087 2171.00449553 367.26071793 2173.51171875 367.2734375 C2187.72324201 367.28729441 2201.33912456 365.9282075 2215.1875 362.5625 C2216.05568359 362.35818359 2216.92386719 362.15386719 2217.81835938 361.94335938 C2220.54680528 361.30078334 2223.27338399 360.65029695 2226 360 C2230.29 359.01 2234.58 358.02 2239 357 C2239 440.49 2239 523.98 2239 610 C2209.96204854 621.16844287 2180.42089202 629.01553741 2149.51660156 632.64624023 C2147.07262749 632.94205551 2147.07262749 632.94205551 2145.01879883 633.5090332 C2132.11796357 636.64648389 2117.23877563 635.24096599 2104.0625 635.25 C2102.90893005 635.25133942 2101.75536011 635.25267883 2100.5668335 635.25405884 C2082.16865892 635.2494337 2064.24392741 634.43490812 2046 632 C2043.77224058 631.72181278 2041.54437726 631.44445625 2039.31640625 631.16796875 C2024.56382891 629.28191445 2024.56382891 629.28191445 2022 628 C2020.3593667 627.69926685 2018.71199746 627.43504029 2017.0625 627.1875 C2004.6818087 625.18102542 1992.46123232 622.58560016 1980.44140625 618.9921875 C1977.39247931 618.11315522 1974.33524531 617.33733319 1971.24902344 616.60180664 C1963.9505654 614.86098 1956.88149001 612.71410541 1949.78442383 610.28173828 C1944.70371066 608.54585065 1939.59995239 606.9735405 1934.4375 605.5 C1926.68928572 603.26707243 1919.11289985 600.66709137 1911.53466797 597.91699219 C1908.60034197 596.85541172 1905.66164552 595.80641212 1902.72265625 594.7578125 C1900.50251527 593.9637902 1898.28246295 593.16951992 1896.0625 592.375 C1895.02029297 592.0027832 1893.97808594 591.63056641 1892.90429688 591.24707031 C1887.37808561 589.26081227 1881.90145119 587.19130739 1876.45874023 584.98681641 C1872.16291508 583.26268521 1867.82954495 581.63716914 1863.5 580 C1861.73925734 579.3341948 1859.9788394 578.6675302 1858.21875 578 C1857.45498047 577.71125 1856.69121094 577.4225 1855.90429688 577.125 C1852.59248849 575.84214753 1849.29665537 574.52197666 1846.00012207 573.20043945 C1842.59603061 571.83835965 1839.1890009 570.48374909 1835.78125 569.13085938 C1835.12699287 568.87111076 1834.47273575 568.61136215 1833.79865265 568.34374237 C1832.41746289 567.79546647 1831.03625461 567.24723724 1829.6550293 566.6990509 C1827.45030853 565.82402815 1825.24565424 564.9488381 1823.04101562 564.0736084 C1818.36073429 562.21559479 1813.68037332 560.35778187 1809 558.5 C1803.56920321 556.34435234 1798.1384406 554.18861866 1792.70776367 552.03266907 C1790.55326466 551.17739455 1788.39870416 550.32227505 1786.24414062 549.46716309 C1784.90233573 548.93450914 1783.56053861 548.40183559 1782.21875 547.86914062 C1781.58300741 547.61680381 1780.94726482 547.36446699 1780.29225731 547.1044836 C1776.67304304 545.66717154 1773.05731479 544.2214663 1769.44384766 542.76977539 C1765.78063579 541.30294065 1762.10109693 539.89226045 1758.3984375 538.52734375 C1757.24859375 538.10259766 1756.09875 537.67785156 1754.9140625 537.24023438 C1753.74617188 536.81033203 1752.57828125 536.38042969 1751.375 535.9375 C1749.02859622 535.07174904 1746.68224082 534.20586694 1744.3359375 533.33984375 C1743.23677002 532.93451416 1742.13760254 532.52918457 1741.00512695 532.11157227 C1738.52281256 531.19338416 1736.04340823 530.26832709 1733.56640625 529.3359375 C1729.02158051 527.63349456 1724.45356284 526.00310444 1719.87890625 524.3828125 C1717.27500627 523.45959359 1714.6803527 522.51480171 1712.08984375 521.5546875 C1702.97569556 518.21154974 1693.79176263 515.46105178 1684.3984375 513.00415039 C1683.50898437 512.77074951 1682.61953125 512.53734863 1681.703125 512.296875 C1680.91583008 512.09416992 1680.12853516 511.89146484 1679.31738281 511.68261719 C1677 511 1677 511 1674.55297852 510.00219727 C1671.86514344 508.94706071 1669.26858078 508.28699273 1666.44921875 507.66796875 C1665.37124023 507.42941162 1664.29326172 507.19085449 1663.18261719 506.94506836 C1662.02922852 506.6950708 1660.87583984 506.44507324 1659.6875 506.1875 C1658.48125977 505.92396729 1657.27501953 505.66043457 1656.03222656 505.38891602 C1653.54527398 504.84740215 1651.05780241 504.3082664 1648.56982422 503.77148438 C1645.3689144 503.07972709 1642.17065201 502.37694493 1638.97265625 501.671875 C1565.0176298 485.56759666 1480.27561982 483.06372283 1410 515 C1409.22124512 515.35126953 1408.44249023 515.70253906 1407.64013672 516.06445312 C1366.47390137 534.76601156 1329.41775157 561.17438517 1294.62890625 589.8359375 C1292.89271842 591.26513224 1291.1506136 592.68717276 1289.40234375 594.1015625 C1282.75163239 599.48873665 1276.27504331 605.05678931 1269.82421875 610.6796875 C1267.38249287 612.80609321 1264.92877895 614.91638677 1262.45703125 617.0078125 C1255.52733373 622.87537904 1248.80223969 628.90969772 1242.19018555 635.13378906 C1238.53885901 638.57067033 1234.85200518 641.94063905 1231.04296875 645.203125 C1229.30824063 646.72888969 1227.61351631 648.28231945 1225.92578125 649.859375 C1225.38139404 650.36637939 1224.83700684 650.87338379 1224.27612305 651.39575195 C1223.19166897 652.40836876 1222.11096742 653.42502223 1221.03442383 654.44604492 C1217.22150128 658 1217.22150128 658 1215 658 C1214.34 659.32 1213.68 660.64 1213 662 C1212.34 662 1211.68 662 1211 662 C1210.75121094 662.58394531 1210.50242187 663.16789062 1210.24609375 663.76953125 C1208.82504563 666.31316284 1207.26807085 667.79407698 1205.0625 669.6875 C1204.37285156 670.28949219 1203.68320313 670.89148437 1202.97265625 671.51171875 C1201 673 1201 673 1198 674 C1196.79117904 676.00016466 1196.79117904 676.00016466 1196 678 C1195.34 678 1194.68 678 1194 678 C1193.76071777 678.5770166 1193.52143555 679.1540332 1193.27490234 679.74853516 C1191.73897846 682.46096144 1189.97023815 683.9982556 1187.6015625 686.0234375 C1183.69652219 689.45139778 1179.93179611 692.97545294 1176.2734375 696.6640625 C1175.54885345 697.39360138 1175.54885345 697.39360138 1174.80963135 698.13787842 C1173.32939679 699.63160031 1171.8517503 701.1278338 1170.375 702.625 C1158.76498977 714.39436331 1158.76498977 714.39436331 1152.69189453 719.52685547 C1150.87475364 721.10905289 1149.18620504 722.77965414 1147.5 724.5 C1145.22987417 726.81075448 1142.90875506 728.96901642 1140.4375 731.0625 C1136.42258395 734.51391906 1132.72132842 738.23939117 1129 742 C1124.72646108 746.31860062 1120.4286376 750.50085582 1115.7890625 754.4296875 C1113.13859077 756.75608408 1110.69858022 759.27647049 1108.25 761.8125 C1106.30817875 763.70038177 1104.32622813 765.47647915 1102.28125 767.25 C1097.90663127 771.04943738 1093.6985115 775.00797267 1089.5 779 C1084.68744023 783.5758765 1079.83054365 788.06817881 1074.81298828 792.41894531 C1072.39631015 794.52646048 1070.04273937 796.69924232 1067.6875 798.875 C1063.17096163 802.99906676 1058.50866984 806.87936865 1053.75 810.71875 C1050.91900422 813.06718968 1048.20616402 815.50909902 1045.5 818 C1040.1703211 822.8936826 1034.63303512 827.46207844 1029 832 C1027.73493201 833.03294233 1026.4706572 834.06685658 1025.20703125 835.1015625 C982.83009867 869.76800553 936.04562345 905.11239595 884.08447266 923.84082031 C881.27845923 924.89535187 878.58609139 926.07939736 875.85546875 927.3125 C868.11845078 930.54882565 860.11809719 932.53868143 851.99365234 934.53979492 C849.39651121 935.18217935 846.80581176 935.84688225 844.21484375 936.51367188 C830.31993712 940.02011544 816.26494567 942.47390183 801.875 942.1875 C801.10027344 942.1781543 800.32554688 942.16880859 799.52734375 942.15917969 C797.01773062 942.12052451 794.50916439 942.06083694 792 942 C791.13793945 941.98598145 790.27587891 941.97196289 789.38769531 941.95751953 C755.13180944 941.3549042 719.87981389 937.06242245 687.42431641 925.82275391 C684.75706214 924.91755281 682.07482411 924.07166622 679.38671875 923.23046875 C623.72488381 905.61648469 574.15885408 873.18857317 528.28417969 837.76123047 C526.31225518 836.24076623 524.33451339 834.72868779 522.3515625 833.22265625 C514.37244534 827.14473614 506.58524945 820.84607626 498.82470703 814.49267578 C497.21776304 813.17813798 495.60720809 811.86801698 493.99609375 810.55859375 C488.55335486 806.1299314 483.1794409 801.62709366 477.83300781 797.08325195 C474.44008249 794.20408664 471.01709624 791.36777419 467.5625 788.5625 C462.69950576 784.60556582 457.94299797 780.53564058 453.19384766 776.44384766 C448.77612409 772.6453068 444.29001797 768.94063958 439.765625 765.26953125 C437.25891904 763.21247452 434.78511761 761.12384167 432.31933594 759.01831055 C426.79069501 754.29779083 421.17281351 749.72616927 415.43554688 745.26171875 C410.96673994 741.77889446 406.57018358 738.21536124 402.1875 734.625 C396.70455142 730.14058186 391.14463167 725.77893258 385.5 721.5 C379.1671095 716.69933043 372.96005847 711.76983655 366.81079102 706.73657227 C361.99238886 702.79500136 357.12226201 698.92724863 352.21801758 695.09326172 C347.3164452 691.25845719 342.45717902 687.37259383 337.60302734 683.47802734 C333.44415467 680.14512162 329.26122067 676.84500602 325.0625 673.5625 C319.97091135 669.58069993 314.94318628 665.52666058 309.9375 661.4375 C304.09742469 656.66979238 298.18432265 652.01866028 292.19140625 647.4453125 C288.87368602 644.91141005 285.59125289 642.33402282 282.3125 639.75 C267.3489908 627.97440527 252.28222186 616.36010355 237 605 C236.18853516 604.39623535 235.37707031 603.7924707 234.54101562 603.17041016 C170.86649709 555.84924688 102.71286029 510.79188847 26.90527344 485.64501953 C24.36989029 484.78667993 21.8745474 483.83203391 19.375 482.875 C-10.29647864 472.11451006 -44.42015034 465.98764467 -75.953125 465.76171875 C-77.07940811 465.75201553 -78.20569122 465.74231232 -79.36610413 465.73231506 C-82.99410592 465.70746798 -86.62192172 465.69480002 -90.25 465.6875 C-91.48487152 465.68488159 -92.71974304 465.68226318 -93.99203491 465.67956543 C-112.67856401 465.67531286 -130.63540183 466.36793314 -149 470 C-149.84981445 470.16016602 -150.69962891 470.32033203 -151.57519531 470.48535156 C-156.76676918 471.47975225 -161.87976006 472.69186972 -167 474 C-168.85545553 474.45838683 -170.71092516 474.91671663 -172.56640625 475.375 C-217.74405427 486.69188099 -259.62840986 507.25393933 -298.64257812 532.47949219 C-302.95458238 535.26068135 -307.29026954 538.00442622 -311.625 540.75 C-312.8622583 541.53914795 -312.8622583 541.53914795 -314.12451172 542.34423828 C-314.88006348 542.8236084 -315.63561523 543.30297852 -316.4140625 543.796875 C-317.0838916 544.22323242 -317.7537207 544.64958984 -318.44384766 545.08886719 C-320 546 -320 546 -321 546 C-321 387.93 -321 229.86 -321 67 C-302 64 -302 64 -293.8125 62.8125 C-254.68931152 56.49544802 -217.03695737 41.95744168 -180.05053711 28.29394531 C-146.22456997 15.81870691 -112.57099493 5.08197939 -77 -1 C-76.1548584 -1.14840332 -75.3097168 -1.29680664 -74.43896484 -1.44970703 C-50.40134888 -5.49820436 -23.89474785 -4.09582898 0 0 Z " fill="#BF51E3" transform="translate(321,376)"/>
<path d="M0 0 C7.68055556 6.58333333 7.68055556 6.58333333 10.5625 9.125 C16.06850433 13.9507258 21.63306587 18.70804871 27.20068359 23.46240234 C28.3608226 24.45379386 29.52007095 25.44622904 30.67822266 26.43994141 C38.3842338 33.05138822 46.24773733 39.41675055 54.26464844 45.64697266 C55.93468403 46.94907413 57.597616 48.25960394 59.2578125 49.57421875 C74.33726563 61.51099516 89.52549232 73.22730733 105.5078125 83.9375 C108.81434176 86.16297063 112.04150266 88.47671537 115.25390625 90.8359375 C121.32400168 95.27526102 127.54692686 99.46818533 133.8125 103.625 C134.39814728 104.0142868 134.98379456 104.40357361 135.58718872 104.80465698 C186.47974933 138.61760861 239.57569898 168.82072529 293.86328125 196.8203125 C298.17916035 199.04900956 302.47377112 201.31164592 306.7512207 203.61303711 C316.63241301 208.92476636 326.74460299 213.71738844 336.8828125 218.515625 C340.03364046 220.01601927 343.17432983 221.53582262 346.3125 223.0625 C380.7371142 239.7997438 415.77361865 255.32263963 450.9375 270.4375 C468.43707914 277.9730066 485.71995975 285.97648245 503 294 C504.01317291 294.47016541 504.01317291 294.47016541 505.04681396 294.9498291 C514.37440543 299.27887638 523.69022908 303.63277684 533 308 C533.64612244 308.30296997 534.29224487 308.60593994 534.95794678 308.91809082 C552.28621105 317.04378306 569.58951015 325.2212251 586.875 333.4375 C588.56956766 334.24278329 590.26414774 335.04804046 591.95874023 335.85327148 C592.79607193 336.25115372 593.63340363 336.64903595 594.49610901 337.05897522 C597.84703351 338.65120319 601.19801095 340.2433197 604.54901123 341.83538818 C606.1635368 342.60254615 607.77799965 343.36983615 609.39239502 344.13726807 C629.3448157 353.62179357 649.34415147 362.98340098 669.48577881 372.05996704 C674.06274659 374.12290467 678.63445937 376.19708049 683.20344543 378.27763367 C750.12753069 408.74155313 819.07487576 436.76144254 891 453 C892.28455078 453.29068359 893.56910156 453.58136719 894.89257812 453.88085938 C958.92679576 468.26636622 1025.45038732 475.90272408 1091 469 C1092.06589355 468.89284668 1093.13178711 468.78569336 1094.22998047 468.67529297 C1116.83069177 466.37606468 1139.18371936 463.03334079 1161.26513672 457.65771484 C1163.98544168 457.00350117 1166.71193725 456.38425895 1169.44140625 455.76953125 C1242.62316247 438.87849404 1309.44280314 401.87302338 1369 357 C1369.90153809 356.32227539 1369.90153809 356.32227539 1370.82128906 355.63085938 C1378.00688308 350.21357888 1385.01131575 344.59183432 1391.97583008 338.89526367 C1396.39555915 335.28424872 1400.86637522 331.74907411 1405.375 328.25 C1410.30096975 324.41678233 1414.98211083 320.4038139 1419.578125 316.17578125 C1422.13257166 313.88089933 1424.76472107 311.71808866 1427.4375 309.5625 C1432.21428509 305.69941783 1436.73946882 301.62088565 1441.2578125 297.4609375 C1443.90015883 295.08960105 1446.60694167 292.84747003 1449.375 290.625 C1454.81386605 286.23655873 1459.90728904 281.53553588 1465.015625 276.7734375 C1469.63353761 272.46894486 1474.40761607 268.35687595 1479.2109375 264.26171875 C1480.41162041 263.23716908 1481.61213621 262.21242354 1482.8125 261.1875 C1483.41868164 260.67018311 1484.02486328 260.15286621 1484.64941406 259.61987305 C1488.3907082 256.41497771 1492.06115383 253.14790722 1495.6875 249.8125 C1500.09621567 245.76579031 1504.66065675 241.97246285 1509.31640625 238.21484375 C1511.94708557 236.04367173 1514.47942424 233.79758643 1517 231.5 C1521.25001973 227.6314781 1525.63684171 223.9795881 1530.10546875 220.3671875 C1532.61332635 218.31622704 1535.08061436 216.22603197 1537.53662109 214.11352539 C1544.34481223 208.26911292 1551.39570427 202.79836212 1558.55078125 197.38671875 C1561.53220774 195.12885674 1564.48531466 192.84037861 1567.41796875 190.51953125 C1577.18371517 182.79645524 1587.17332805 175.57000687 1597.52734375 168.65625 C1600.05846559 166.96083821 1602.57675771 165.24755525 1605.09375 163.53125 C1653.27445978 130.82149351 1706.35615296 105.90982624 1764 96 C1764.77875488 95.85965332 1765.55750977 95.71930664 1766.35986328 95.57470703 C1849.52215541 80.5874886 1929.81519013 101.63496995 2001 145 C2002.81762906 146.0925798 2004.63533614 147.18502983 2006.453125 148.27734375 C2018.67273497 155.67757445 2030.39360059 163.67780288 2042 172 C2043.50505262 173.07053144 2045.01025742 174.14084899 2046.515625 175.2109375 C2056.47912455 182.3233332 2066.23245427 189.69583698 2075.94921875 197.140625 C2080.42059032 200.56492997 2084.92242991 203.9461462 2089.4375 207.3125 C2096.08409968 212.27759929 2102.61432322 217.37784935 2109.12353516 222.52099609 C2141.96707298 248.40782307 2175.19101064 274.30135873 2211 296 C2211.91330078 296.55397461 2212.82660156 297.10794922 2213.76757812 297.67871094 C2246.13153418 317.19067234 2280.13215604 333.11165171 2317.0625 341.75 C2317.85100342 341.93667236 2318.63950684 342.12334473 2319.4519043 342.31567383 C2335.60721809 345.88880759 2351.701684 347.50479662 2368.22949219 347.39111328 C2370.99984922 347.37500088 2373.76874833 347.39110118 2376.5390625 347.41015625 C2393.32153253 347.43089192 2409.80810411 345.52615872 2426.0625 341.25 C2427.06450439 340.98960937 2428.06650879 340.72921875 2429.09887695 340.4609375 C2456.02172667 333.29232073 2481.8511203 321.55272037 2505 306 C2505.7101123 305.52353027 2506.42022461 305.04706055 2507.15185547 304.55615234 C2516.91130402 297.94603711 2526.21754232 290.83469392 2535.32910156 283.36230469 C2536.87171531 282.10459213 2538.4312478 280.86770735 2539.9921875 279.6328125 C2546.05123469 274.80960496 2551.50376694 269.64412734 2556.8828125 264.08984375 C2559 262 2559 262 2560 262 C2560 301.27 2560 340.54 2560 381 C2530.96204854 392.16844287 2501.42089202 400.01553741 2470.51660156 403.64624023 C2468.07262749 403.94205551 2468.07262749 403.94205551 2466.01879883 404.5090332 C2453.11796357 407.64648389 2438.23877563 406.24096599 2425.0625 406.25 C2423.90893005 406.25133942 2422.75536011 406.25267883 2421.5668335 406.25405884 C2403.16865892 406.2494337 2385.24392741 405.43490812 2367 403 C2364.77224058 402.72181278 2362.54437726 402.44445625 2360.31640625 402.16796875 C2345.56382891 400.28191445 2345.56382891 400.28191445 2343 399 C2341.3593667 398.69926685 2339.71199746 398.43504029 2338.0625 398.1875 C2325.6818087 396.18102542 2313.46123232 393.58560016 2301.44140625 389.9921875 C2298.39247931 389.11315522 2295.33524531 388.33733319 2292.24902344 387.60180664 C2284.9505654 385.86098 2277.88149001 383.71410541 2270.78442383 381.28173828 C2265.70371066 379.54585065 2260.59995239 377.9735405 2255.4375 376.5 C2247.68928572 374.26707243 2240.11289985 371.66709137 2232.53466797 368.91699219 C2229.60034197 367.85541172 2226.66164552 366.80641212 2223.72265625 365.7578125 C2221.50251527 364.9637902 2219.28246295 364.16951992 2217.0625 363.375 C2216.02029297 363.0027832 2214.97808594 362.63056641 2213.90429688 362.24707031 C2208.37808561 360.26081227 2202.90145119 358.19130739 2197.45874023 355.98681641 C2193.16291508 354.26268521 2188.82954495 352.63716914 2184.5 351 C2182.73925734 350.3341948 2180.9788394 349.6675302 2179.21875 349 C2178.45498047 348.71125 2177.69121094 348.4225 2176.90429688 348.125 C2173.59248849 346.84214753 2170.29665537 345.52197666 2167.00012207 344.20043945 C2163.59603061 342.83835965 2160.1890009 341.48374909 2156.78125 340.13085938 C2156.12699287 339.87111076 2155.47273575 339.61136215 2154.79865265 339.34374237 C2153.41746289 338.79546647 2152.03625461 338.24723724 2150.6550293 337.6990509 C2148.45030853 336.82402815 2146.24565424 335.9488381 2144.04101562 335.0736084 C2139.36073429 333.21559479 2134.68037332 331.35778187 2130 329.5 C2124.56920321 327.34435234 2119.1384406 325.18861866 2113.70776367 323.03266907 C2111.55326466 322.17739455 2109.39870416 321.32227505 2107.24414062 320.46716309 C2105.90233573 319.93450914 2104.56053861 319.40183559 2103.21875 318.86914062 C2102.58300741 318.61680381 2101.94726482 318.36446699 2101.29225731 318.1044836 C2097.67304304 316.66717154 2094.05731479 315.2214663 2090.44384766 313.76977539 C2086.78063579 312.30294065 2083.10109693 310.89226045 2079.3984375 309.52734375 C2077.67367187 308.89022461 2077.67367187 308.89022461 2075.9140625 308.24023438 C2074.74617188 307.81033203 2073.57828125 307.38042969 2072.375 306.9375 C2070.02859622 306.07174904 2067.68224082 305.20586694 2065.3359375 304.33984375 C2064.23677002 303.93451416 2063.13760254 303.52918457 2062.00512695 303.11157227 C2059.52281256 302.19338416 2057.04340823 301.26832709 2054.56640625 300.3359375 C2050.02158051 298.63349456 2045.45356284 297.00310444 2040.87890625 295.3828125 C2038.27500627 294.45959359 2035.6803527 293.51480171 2033.08984375 292.5546875 C2023.97569556 289.21154974 2014.79176263 286.46105178 2005.3984375 284.00415039 C2004.50898437 283.77074951 2003.61953125 283.53734863 2002.703125 283.296875 C2001.52218262 282.99281738 2001.52218262 282.99281738 2000.31738281 282.68261719 C1998 282 1998 282 1995.55297852 281.00219727 C1992.86514344 279.94706071 1990.26858078 279.28699273 1987.44921875 278.66796875 C1986.37124023 278.42941162 1985.29326172 278.19085449 1984.18261719 277.94506836 C1983.02922852 277.6950708 1981.87583984 277.44507324 1980.6875 277.1875 C1979.48125977 276.92396729 1978.27501953 276.66043457 1977.03222656 276.38891602 C1974.54527398 275.84740215 1972.05780241 275.3082664 1969.56982422 274.77148438 C1966.3689144 274.07972709 1963.17065201 273.37694493 1959.97265625 272.671875 C1886.0176298 256.56759666 1801.27561982 254.06372283 1731 286 C1730.22124512 286.35126953 1729.44249023 286.70253906 1728.64013672 287.06445312 C1687.47390137 305.76601156 1650.41775157 332.17438517 1615.62890625 360.8359375 C1613.89271842 362.26513224 1612.1506136 363.68717276 1610.40234375 365.1015625 C1603.75163239 370.48873665 1597.27504331 376.05678931 1590.82421875 381.6796875 C1588.38249287 383.80609321 1585.92877895 385.91638677 1583.45703125 388.0078125 C1576.52733373 393.87537904 1569.80223969 399.90969772 1563.19018555 406.13378906 C1559.53885901 409.57067033 1555.85200518 412.94063905 1552.04296875 416.203125 C1550.30824063 417.72888969 1548.61351631 419.28231945 1546.92578125 420.859375 C1546.38139404 421.36637939 1545.83700684 421.87338379 1545.27612305 422.39575195 C1544.19166897 423.40836876 1543.11096742 424.42502223 1542.03442383 425.44604492 C1538.22150128 429 1538.22150128 429 1536 429 C1535.34 430.32 1534.68 431.64 1534 433 C1533.34 433 1532.68 433 1532 433 C1531.62681641 433.87591797 1531.62681641 433.87591797 1531.24609375 434.76953125 C1529.82504563 437.31316284 1528.26807085 438.79407698 1526.0625 440.6875 C1525.37285156 441.28949219 1524.68320313 441.89148437 1523.97265625 442.51171875 C1522 444 1522 444 1519 445 C1517.79117904 447.00016466 1517.79117904 447.00016466 1517 449 C1516.34 449 1515.68 449 1515 449 C1514.76071777 449.5770166 1514.52143555 450.1540332 1514.27490234 450.74853516 C1512.73897846 453.46096144 1510.97023815 454.9982556 1508.6015625 457.0234375 C1504.69652219 460.45139778 1500.93179611 463.97545294 1497.2734375 467.6640625 C1496.54885345 468.39360138 1496.54885345 468.39360138 1495.80963135 469.13787842 C1494.32939679 470.63160031 1492.8517503 472.1278338 1491.375 473.625 C1479.76498977 485.39436331 1479.76498977 485.39436331 1473.69189453 490.52685547 C1471.87475364 492.10905289 1470.18620504 493.77965414 1468.5 495.5 C1466.22987417 497.81075448 1463.90875506 499.96901642 1461.4375 502.0625 C1457.42258395 505.51391906 1453.72132842 509.23939117 1450 513 C1445.72646108 517.31860062 1441.4286376 521.50085582 1436.7890625 525.4296875 C1434.13859077 527.75608408 1431.69858022 530.27647049 1429.25 532.8125 C1427.30817875 534.70038177 1425.32622813 536.47647915 1423.28125 538.25 C1418.90663127 542.04943738 1414.6985115 546.00797267 1410.5 550 C1405.68744023 554.5758765 1400.83054365 559.06817881 1395.81298828 563.41894531 C1393.39631015 565.52646048 1391.04273937 567.69924232 1388.6875 569.875 C1384.17096163 573.99906676 1379.50866984 577.87936865 1374.75 581.71875 C1371.91900422 584.06718968 1369.20616402 586.50909902 1366.5 589 C1361.1703211 593.8936826 1355.63303512 598.46207844 1350 603 C1348.73493201 604.03294233 1347.4706572 605.06685658 1346.20703125 606.1015625 C1303.83009867 640.76800553 1257.04562345 676.11239595 1205.08447266 694.84082031 C1202.27845923 695.89535187 1199.58609139 697.07939736 1196.85546875 698.3125 C1189.11845078 701.54882565 1181.11809719 703.53868143 1172.99365234 705.53979492 C1170.39651121 706.18217935 1167.80581176 706.84688225 1165.21484375 707.51367188 C1151.31993712 711.02011544 1137.26494567 713.47390183 1122.875 713.1875 C1122.10027344 713.1781543 1121.32554688 713.16880859 1120.52734375 713.15917969 C1118.01773062 713.12052451 1115.50916439 713.06083694 1113 713 C1112.13793945 712.98598145 1111.27587891 712.97196289 1110.38769531 712.95751953 C1076.13180944 712.3549042 1040.87981389 708.06242245 1008.42431641 696.82275391 C1005.75706214 695.91755281 1003.07482411 695.07166622 1000.38671875 694.23046875 C944.72488381 676.61648469 895.15885408 644.18857317 849.28417969 608.76123047 C847.31225518 607.24076623 845.33451339 605.72868779 843.3515625 604.22265625 C835.37244534 598.14473614 827.58524945 591.84607626 819.82470703 585.49267578 C818.21776304 584.17813798 816.60720809 582.86801698 814.99609375 581.55859375 C809.55335486 577.1299314 804.1794409 572.62709366 798.83300781 568.08325195 C795.44008249 565.20408664 792.01709624 562.36777419 788.5625 559.5625 C783.69950576 555.60556582 778.94299797 551.53564058 774.19384766 547.44384766 C769.77612409 543.6453068 765.29001797 539.94063958 760.765625 536.26953125 C758.25891904 534.21247452 755.78511761 532.12384167 753.31933594 530.01831055 C747.79069501 525.29779083 742.17281351 520.72616927 736.43554688 516.26171875 C731.96673994 512.77889446 727.57018358 509.21536124 723.1875 505.625 C717.70455142 501.14058186 712.14463167 496.77893258 706.5 492.5 C700.1671095 487.69933043 693.96005847 482.76983655 687.81079102 477.73657227 C682.99238886 473.79500136 678.12226201 469.92724863 673.21801758 466.09326172 C668.3164452 462.25845719 663.45717902 458.37259383 658.60302734 454.47802734 C654.44415467 451.14512162 650.26122067 447.84500602 646.0625 444.5625 C640.97091135 440.58069993 635.94318628 436.52666058 630.9375 432.4375 C625.09742469 427.66979238 619.18432265 423.01866028 613.19140625 418.4453125 C609.87368602 415.91141005 606.59125289 413.33402282 603.3125 410.75 C588.3489908 398.97440527 573.28222186 387.36010355 558 376 C557.18853516 375.39623535 556.37707031 374.7924707 555.54101562 374.17041016 C491.86649709 326.84924688 423.71286029 281.79188847 347.90527344 256.64501953 C345.36989029 255.78667993 342.8745474 254.83203391 340.375 253.875 C310.70352136 243.11451006 276.57984966 236.98764467 245.046875 236.76171875 C243.92059189 236.75201553 242.79430878 236.74231232 241.63389587 236.73231506 C238.00589408 236.70746798 234.37807828 236.69480002 230.75 236.6875 C229.51512848 236.68488159 228.28025696 236.68226318 227.00796509 236.67956543 C208.32143599 236.67531286 190.36459817 237.36793314 172 241 C171.15018555 241.16016602 170.30037109 241.32033203 169.42480469 241.48535156 C164.23323082 242.47975225 159.12023994 243.69186972 154 245 C152.14454447 245.45838683 150.28907484 245.91671663 148.43359375 246.375 C103.25594573 257.69188099 61.37159014 278.25393933 22.35742188 303.47949219 C18.04541762 306.26068135 13.70973046 309.00442622 9.375 311.75 C8.55016113 312.27609863 7.72532227 312.80219727 6.87548828 313.34423828 C6.11993652 313.8236084 5.36438477 314.30297852 4.5859375 314.796875 C3.9161084 315.22323242 3.2462793 315.64958984 2.55615234 316.08886719 C1 317 1 317 0 317 C0 212.39 0 107.78 0 0 Z " fill="#FE7892" transform="translate(0,605)"/>
<path d="M0 0 C4.26326366 -0.00873943 8.52652496 -0.0139366 12.78979492 -0.01855469 C13.98235649 -0.02104218 15.17491806 -0.02352966 16.40361786 -0.02609253 C27.38728884 -0.03498628 38.34076161 0.25966579 49.3125 0.75 C50.28126068 0.79223694 51.25002136 0.83447388 52.24813843 0.87799072 C108.26447838 3.3835576 166.24480716 10.72531354 217 36 C217.86947266 36.42925781 218.73894531 36.85851562 219.63476562 37.30078125 C231.31179943 43.11000093 242.4053316 49.39190034 253 57 C253.64243652 57.45455566 254.28487305 57.90911133 254.94677734 58.37744141 C265.41258758 65.8165628 274.83238242 74.02447845 284 83 C284.74636719 83.72590332 285.49273437 84.45180664 286.26171875 85.19970703 C295.03180686 93.75054293 303.55883476 102.25103798 311 112 C311.69996094 112.85980469 312.39992188 113.71960938 313.12109375 114.60546875 C327.56645909 132.65608547 340.06516799 152.66743235 351 173 C351.54575684 174.00933594 352.09151367 175.01867187 352.65380859 176.05859375 C390.86420356 247.11765455 413.81321742 325.19157314 433.75 403 C434.0167453 404.03829956 434.2834906 405.07659912 434.55831909 406.1463623 C435.30907046 409.07560278 436.05418922 412.00620541 436.796875 414.9375 C437.02123734 415.81351868 437.24559967 416.68953735 437.47676086 417.59210205 C437.77975349 418.79754669 437.77975349 418.79754669 438.08886719 420.02734375 C438.26585144 420.72593506 438.44283569 421.42452637 438.62518311 422.14428711 C439 424 439 424 439 427 C433.90149583 426.32437238 429.51026235 424.17417795 424.86328125 422.08984375 C423.96359116 421.69072281 423.06390106 421.29160187 422.13694763 420.88038635 C419.19287046 419.57182882 416.25251548 418.25515533 413.3125 416.9375 C412.30602417 416.48826172 411.29954834 416.03902344 410.26257324 415.57617188 C391.72176941 407.30017039 373.31419217 398.76466224 355 390 C353.8464502 389.44876465 352.69290039 388.8975293 351.50439453 388.32958984 C346.27360188 385.82837128 341.04664155 383.31942703 335.82421875 380.80078125 C331.89650191 378.90770733 327.96145658 377.03127244 324.01953125 375.16796875 C313.55220378 370.21411783 303.20660069 365.10890671 292.9921875 359.65234375 C289.36746437 357.71686179 285.72476565 355.82015347 282.0703125 353.94140625 C270.73106893 348.10860761 259.5130207 342.12700052 248.44311523 335.79663086 C242.99668866 332.68352044 237.51996788 329.64687271 231.98974609 326.68530273 C219.89675424 320.20210931 208.19588533 313.14240505 196.50390625 305.97265625 C191.41431829 302.85257154 186.29069157 299.80426211 181.125 296.8125 C154.57601946 281.33023173 129.02214064 263.82602311 104 246 C103.23397461 245.45537109 102.46794922 244.91074219 101.67871094 244.34960938 C91.34737763 236.9906622 81.18726099 229.43093865 71.15625 221.66796875 C68.95100712 219.96210152 66.74124672 218.26220234 64.53125 216.5625 C46.1725811 202.4057019 28.4045446 187.57715414 11.2265625 172.0078125 C8.34509559 169.40943707 5.42440763 166.8578352 2.49609375 164.3125 C1.64347059 163.56450684 0.80201622 162.80201622 0 162 C-0.09685318 159.91172679 -0.12186882 157.82011638 -0.12025452 155.729599 C-0.12110894 155.06720909 -0.12196337 154.40481918 -0.12284368 153.72235686 C-0.12450033 151.4866713 -0.11897414 149.25105958 -0.11352539 147.01538086 C-0.11324353 145.41919456 -0.11340123 143.82300813 -0.1139679 142.2268219 C-0.11425592 137.87990105 -0.10835835 133.53300756 -0.10139394 129.18609309 C-0.09516128 124.64836053 -0.09455667 120.11062741 -0.09336853 115.57289124 C-0.09025495 106.9739216 -0.08204122 98.37496461 -0.07201904 89.77600056 C-0.06085872 79.98898272 -0.05534766 70.20196429 -0.05032361 60.41494167 C-0.03985862 40.27662071 -0.02225868 20.13831115 0 0 Z " fill="#8957E6" transform="translate(0,443)"/>
<path d="M0 0 C1.00382721 -0.0033284 2.00765442 -0.0066568 3.04190063 -0.01008606 C5.15797472 -0.01511979 7.27405665 -0.01749549 9.39013672 -0.01733398 C12.55840886 -0.01950172 15.72632135 -0.03764419 18.89453125 -0.05664062 C35.09061355 -0.10100717 50.99129401 0.95137378 66.9765625 3.62890625 C69.2415475 4.00458886 71.51340361 4.34011197 73.7890625 4.64453125 C126.52130326 11.98193207 177.67789624 34.09779002 225.2265625 57.16796875 C225.85753845 57.47367798 226.4885144 57.77938721 227.13861084 58.09436035 C242.62049878 65.60532206 257.84312519 73.44346131 272.7578125 82.0390625 C278.36053482 85.26606151 284.03761001 88.34634474 289.7265625 91.41796875 C297.56688359 95.67145541 305.27642338 100.06938118 312.87939453 104.734375 C315.77853207 106.50509849 318.68811707 108.25813961 321.59765625 110.01171875 C335.35521642 118.31075298 349.00870724 126.74666912 362.5234375 135.4375 C365.21851838 137.16281912 367.924007 138.87054308 370.6328125 140.57421875 C401.76231578 160.22058454 432.23941347 181.06093778 462.3515625 202.23046875 C463.16359131 202.80063721 463.97562012 203.37080566 464.81225586 203.95825195 C466.46778765 205.12109851 468.12298779 206.2844174 469.77783203 207.44824219 C472.23557408 209.17429752 474.69748365 210.89427 477.16015625 212.61328125 C478.70322133 213.69387287 480.24619436 214.77459595 481.7890625 215.85546875 C482.49756348 216.34861572 483.20606445 216.8417627 483.93603516 217.34985352 C484.91709229 218.03905884 484.91709229 218.03905884 485.91796875 218.7421875 C486.48717041 219.14010498 487.05637207 219.53802246 487.64282227 219.94799805 C489.31721907 221.2378024 490.76488974 222.64393276 492.2265625 224.16796875 C474.48442832 239.40533105 455.03704324 252.48795796 434.2265625 263.16796875 C433.0519043 263.78164307 433.0519043 263.78164307 431.85351562 264.40771484 C398.99835581 281.42992871 363.69645153 289.62111357 326.8515625 289.54296875 C325.88367798 289.54242493 324.91579346 289.5418811 323.9185791 289.5413208 C308.33763636 289.5011687 293.48273907 288.5608301 278.2265625 285.16796875 C276.75413086 284.85448486 276.75413086 284.85448486 275.25195312 284.53466797 C225.93895584 273.85445198 180.45791746 249.52721642 139.43359375 220.71630859 C137.29804249 219.21811544 135.15405932 217.73281585 133.0078125 216.25 C122.33375867 208.83840191 112.02141612 200.97999048 101.71435547 193.06933594 C98.07095213 190.28476035 94.40070139 187.53678676 90.7265625 184.79296875 C80.86120592 177.41391297 71.12044692 169.88333679 61.44116211 162.26220703 C56.05579277 158.02539023 50.63512443 153.83565838 45.19238281 149.67285156 C43.76105586 148.5771363 42.33087025 147.47992964 40.90136719 146.38183594 C28.82015921 137.10260894 16.63640625 128.00280991 4.2265625 119.16796875 C3.52080078 118.66313965 2.81503906 118.15831055 2.08789062 117.63818359 C-43.19091115 85.25905882 -91.04747998 57.80033005 -144.7734375 42.16796875 C-139.7237963 38.11639018 -133.83022503 35.63544943 -128.0234375 32.85546875 C-127.41728607 32.5638385 -126.81113464 32.27220825 -126.18661499 31.97174072 C-116.87242846 27.50015432 -107.54102846 23.53452413 -97.7734375 20.16796875 C-96.01580078 19.50667969 -96.01580078 19.50667969 -94.22265625 18.83203125 C-92.73972191 18.27697338 -91.25662773 17.72234248 -89.7734375 17.16796875 C-88.76385986 16.78576172 -87.75428223 16.40355469 -86.71411133 16.00976562 C-77.84712786 12.73301476 -68.95977074 10.2320769 -59.7734375 8.04296875 C-59.05920624 7.87054657 -58.34497498 7.69812439 -57.60910034 7.52047729 C-46.23312885 4.78686653 -34.88008314 2.60362697 -23.22660828 1.41955566 C-21.65434487 1.25831092 -20.08288875 1.0888574 -18.51264954 0.90896606 C-12.32637335 0.22592621 -6.22095562 0.00739944 0 0 Z " fill="#FE64EC" transform="translate(2044.7734375,663.83203125)"/>
<path d="M0 0 C1.04470459 0.35151123 2.08940918 0.70302246 3.16577148 1.06518555 C13.59402363 4.6439021 23.66331418 8.85996033 33.6875 13.4375 C34.59822266 13.84838867 35.50894531 14.25927734 36.44726562 14.68261719 C51.78827274 21.64082173 66.2856875 29.71664562 80.6875 38.4375 C81.60305664 38.98696289 82.51861328 39.53642578 83.46191406 40.10253906 C96.60661731 48.00266248 109.2270125 56.50289164 121.6875 65.4375 C123.19255262 66.50803144 124.69775742 67.57834899 126.203125 68.6484375 C136.16662455 75.7608332 145.91995427 83.13333698 155.63671875 90.578125 C160.10809032 94.00242997 164.60992991 97.3836462 169.125 100.75 C175.77159968 105.71509929 182.30182322 110.81534935 188.81103516 115.95849609 C221.65457298 141.84532307 254.87851064 167.73885873 290.6875 189.4375 C292.05745117 190.26846191 292.05745117 190.26846191 293.45507812 191.11621094 C325.81903418 210.62817234 359.81965604 226.54915171 396.75 235.1875 C397.53850342 235.37417236 398.32700684 235.56084473 399.1394043 235.75317383 C415.29471809 239.32630759 431.389184 240.94229662 447.91699219 240.82861328 C450.68734922 240.81250088 453.45624833 240.82860118 456.2265625 240.84765625 C473.00903253 240.86839192 489.49560411 238.96365872 505.75 234.6875 C506.75200439 234.42710937 507.75400879 234.16671875 508.78637695 233.8984375 C535.70922667 226.72982073 561.5386203 214.99022037 584.6875 199.4375 C585.75266846 198.72279541 585.75266846 198.72279541 586.83935547 197.99365234 C596.59880402 191.38353711 605.90504232 184.27219392 615.01660156 176.79980469 C616.55921531 175.54209213 618.1187478 174.30520735 619.6796875 173.0703125 C625.73873469 168.24710496 631.19126694 163.08162734 636.5703125 157.52734375 C638.6875 155.4375 638.6875 155.4375 639.6875 155.4375 C639.6875 194.7075 639.6875 233.9775 639.6875 274.4375 C610.64954854 285.60594287 581.10839202 293.45303741 550.20410156 297.08374023 C547.76012749 297.37955551 547.76012749 297.37955551 545.70629883 297.9465332 C532.80546357 301.08398389 517.92627563 299.67846599 504.75 299.6875 C503.59643005 299.68883942 502.44286011 299.69017883 501.2543335 299.69155884 C482.85615892 299.6869337 464.93142741 298.87240812 446.6875 296.4375 C444.45974058 296.15931278 442.23187726 295.88195625 440.00390625 295.60546875 C425.25132891 293.71941445 425.25132891 293.71941445 422.6875 292.4375 C421.0468667 292.13676685 419.39949746 291.87254029 417.75 291.625 C405.3693087 289.61852542 393.14873232 287.02310016 381.12890625 283.4296875 C378.07997931 282.55065522 375.02274531 281.77483319 371.93652344 281.03930664 C364.6380654 279.29848 357.56899001 277.15160541 350.47192383 274.71923828 C345.39121066 272.98335065 340.28745239 271.4110405 335.125 269.9375 C327.37678572 267.70457243 319.80039985 265.10459137 312.22216797 262.35449219 C309.28784197 261.29291172 306.34914552 260.24391212 303.41015625 259.1953125 C301.19001527 258.4012902 298.96996295 257.60701992 296.75 256.8125 C295.70779297 256.4402832 294.66558594 256.06806641 293.59179688 255.68457031 C288.06558561 253.69831227 282.58895119 251.62880739 277.14624023 249.42431641 C272.85041508 247.70018521 268.51704495 246.07466914 264.1875 244.4375 C262.42675734 243.7716948 260.6663394 243.1050302 258.90625 242.4375 C257.7605957 242.004375 257.7605957 242.004375 256.59179688 241.5625 C253.27998849 240.27964753 249.98415537 238.95947666 246.68762207 237.63793945 C243.28353061 236.27585965 239.8765009 234.92124909 236.46875 233.56835938 C235.81449287 233.30861076 235.16023575 233.04886215 234.48615265 232.78124237 C233.10496289 232.23296647 231.72375461 231.68473724 230.3425293 231.1365509 C228.13780853 230.26152815 225.93315424 229.3863381 223.72851562 228.5111084 C219.04823429 226.65309479 214.36787332 224.79528187 209.6875 222.9375 C204.25670321 220.78185234 198.8259406 218.62611866 193.39526367 216.47016907 C191.24076466 215.61489455 189.08620416 214.75977505 186.93164062 213.90466309 C185.58983573 213.37200914 184.24803861 212.83933559 182.90625 212.30664062 C182.27050741 212.05430381 181.63476482 211.80196699 180.97975731 211.5419836 C177.36054304 210.10467154 173.74481479 208.6589663 170.13134766 207.20727539 C166.46813579 205.74044065 162.78859693 204.32976045 159.0859375 202.96484375 C157.93609375 202.54009766 156.78625 202.11535156 155.6015625 201.67773438 C154.43367188 201.24783203 153.26578125 200.81792969 152.0625 200.375 C149.71609622 199.50924904 147.36974082 198.64336694 145.0234375 197.77734375 C143.37468628 197.16934937 143.37468628 197.16934937 141.69262695 196.54907227 C139.21031256 195.63088416 136.73090823 194.70582709 134.25390625 193.7734375 C129.70908051 192.07099456 125.14106284 190.44060444 120.56640625 188.8203125 C117.96250627 187.89709359 115.3678527 186.95230171 112.77734375 185.9921875 C103.66319556 182.64904974 94.47926263 179.89855178 85.0859375 177.44165039 C84.19648437 177.20824951 83.30703125 176.97484863 82.390625 176.734375 C81.60333008 176.53166992 80.81603516 176.32896484 80.00488281 176.12011719 C77.6875 175.4375 77.6875 175.4375 75.24047852 174.43969727 C72.55264344 173.38456071 69.95608078 172.72449273 67.13671875 172.10546875 C65.51975098 171.74763306 65.51975098 171.74763306 63.87011719 171.38256836 C62.71672852 171.1325708 61.56333984 170.88257324 60.375 170.625 C59.16875977 170.36146729 57.96251953 170.09793457 56.71972656 169.82641602 C54.23277398 169.28490215 51.74530241 168.7457664 49.25732422 168.20898438 C46.0564144 167.51722709 42.85815201 166.81444493 39.66015625 166.109375 C-34.2948702 150.00509666 -119.03688018 147.50122283 -189.3125 179.4375 C-190.09125488 179.78876953 -190.87000977 180.14003906 -191.67236328 180.50195312 C-232.83859863 199.20351156 -269.89474843 225.61188517 -304.68359375 254.2734375 C-306.41978158 255.70263224 -308.1618864 257.12467276 -309.91015625 258.5390625 C-316.56086761 263.92623665 -323.03745669 269.49428931 -329.48828125 275.1171875 C-331.93000713 277.24359321 -334.38372105 279.35388677 -336.85546875 281.4453125 C-343.78516627 287.31287904 -350.51026031 293.34719772 -357.12231445 299.57128906 C-360.77364099 303.00817033 -364.46049482 306.37813905 -368.26953125 309.640625 C-370.00425937 311.16638969 -371.69898369 312.71981945 -373.38671875 314.296875 C-374.20329956 315.05738159 -374.20329956 315.05738159 -375.03637695 315.83325195 C-376.12083103 316.84586876 -377.20153258 317.86252223 -378.27807617 318.88354492 C-382.09099872 322.4375 -382.09099872 322.4375 -384.3125 322.4375 C-384.9725 323.7575 -385.6325 325.0775 -386.3125 326.4375 C-386.9725 326.4375 -387.6325 326.4375 -388.3125 326.4375 C-388.56128906 327.02144531 -388.81007813 327.60539062 -389.06640625 328.20703125 C-390.48745437 330.75066284 -392.04442915 332.23157698 -394.25 334.125 C-394.93964844 334.72699219 -395.62929687 335.32898437 -396.33984375 335.94921875 C-398.3125 337.4375 -398.3125 337.4375 -401.3125 338.4375 C-402.52132096 340.43766466 -402.52132096 340.43766466 -403.3125 342.4375 C-403.9725 342.4375 -404.6325 342.4375 -405.3125 342.4375 C-405.67142334 343.3030249 -405.67142334 343.3030249 -406.03759766 344.18603516 C-407.57352154 346.89846144 -409.34226185 348.4357556 -411.7109375 350.4609375 C-415.61597781 353.88889778 -419.38070389 357.41295294 -423.0390625 361.1015625 C-423.76364655 361.83110138 -423.76364655 361.83110138 -424.50286865 362.57537842 C-425.98310321 364.06910031 -427.4607497 365.5653338 -428.9375 367.0625 C-434.69648805 372.90053299 -440.43795692 378.69733701 -446.67724609 384.02929688 C-448.64707786 385.72562258 -450.49375599 387.51836549 -452.3125 389.375 C-452.89 389.96152344 -453.4675 390.54804687 -454.0625 391.15234375 C-454.475 391.57644531 -454.8875 392.00054688 -455.3125 392.4375 C-455.3125 389.4375 -455.3125 389.4375 -453.12866211 386.92895508 C-452.12318266 385.9307429 -451.10962174 384.94063143 -450.08984375 383.95703125 C-449.55154434 383.42534836 -449.01324493 382.89366547 -448.45863342 382.34587097 C-446.72935287 380.64002719 -444.99030465 378.94458947 -443.25 377.25 C-440.98447246 375.03119757 -438.72326312 372.80806739 -436.46484375 370.58203125 C-435.91601532 370.04188385 -435.36718689 369.50173645 -434.80172729 368.94522095 C-431.36976439 365.54680045 -428.1384579 362.04374801 -425.01000977 358.36206055 C-420.71969313 353.4978917 -415.96011058 349.05118308 -411.33984375 344.50390625 C-407.70910828 340.90813773 -404.14192643 337.31603044 -400.8125 333.4375 C-395.98117614 327.80937243 -390.62252622 322.70313402 -385.33984375 317.50390625 C-381.7403177 313.93904658 -378.20036732 310.38223001 -374.90625 306.53125 C-369.89799706 300.69701342 -364.32671971 295.3952193 -358.85546875 290.00097656 C-352.24434519 283.51661804 -352.24434519 283.51661804 -346.03125 276.65625 C-339.77695905 269.34468606 -332.67996665 262.75420092 -325.84619141 255.99169922 C-323.92658658 254.09034433 -322.01012101 252.18586336 -320.09375 250.28125 C-319.51749878 249.71329712 -318.94124756 249.14534424 -318.34753418 248.56018066 C-315.4808997 245.7105318 -312.73865432 242.80810597 -310.10984802 239.73683167 C-306.3139392 235.38058745 -302.29942386 231.28352482 -298.20922852 227.20483398 C-297.04191193 226.03488892 -297.04191193 226.03488892 -295.85101318 224.84130859 C-293.30030527 222.28623096 -290.74599411 219.73479174 -288.19140625 217.18359375 C-286.40438992 215.39590298 -284.61752199 213.60806386 -282.83079529 211.82008362 C-279.09446813 208.08228609 -275.35639533 204.3462432 -271.61694336 200.61157227 C-267.31218169 196.31225137 -263.01103392 192.00934027 -258.71174484 187.70454735 C-254.55201031 183.53970373 -250.38943987 179.37770494 -246.22569084 175.21687508 C-244.46479958 173.45664814 -242.70464323 171.69568568 -240.94525337 169.93395805 C-238.48097765 167.46712646 -236.01349078 165.00355074 -233.54516602 162.54077148 C-232.82751572 161.82109695 -232.10986542 161.10142242 -231.37046814 160.35993958 C-227.40731145 156.41315884 -223.35004175 152.64076181 -219.09960842 149.00430393 C-216.19446391 146.457289 -213.50926333 143.70151429 -210.8125 140.9375 C-206.82114908 136.84661415 -202.71248128 132.99618181 -198.38769531 129.25878906 C-194.8144187 126.12271336 -191.38459545 122.83584198 -187.9375 119.5625 C-178.97998039 111.10074127 -169.86832385 102.87675449 -160.49023438 94.88452148 C-156.98501128 91.89198983 -153.5325371 88.85416336 -150.125 85.75 C-145.54040913 81.59567818 -140.78845328 77.68480329 -135.97900391 73.79492188 C-134.07465888 72.24377064 -132.18326869 70.67761071 -130.29296875 69.109375 C-121.76326637 62.03579808 -113.1650203 55.10530416 -104.3125 48.4375 C-103.35512939 47.71433594 -103.35512939 47.71433594 -102.37841797 46.9765625 C-90.20252334 37.7841266 -77.96308799 28.7553569 -65.25 20.3125 C-64.23873047 19.63574219 -63.22746094 18.95898438 -62.18554688 18.26171875 C-55.99331507 14.13888058 -49.71485937 10.22359924 -43.3125 6.4375 C-41.97375789 5.62355994 -40.63641453 4.80731276 -39.30078125 3.98828125 C-38.68783203 3.61509766 -38.07488281 3.24191406 -37.44335938 2.85742188 C-36.21736105 2.11076124 -34.99343921 1.36068171 -33.77148438 0.60742188 C-31.96995257 -0.48493551 -30.14906867 -1.53034137 -28.3125 -2.5625 C-27.21292969 -3.18769531 -26.11335938 -3.81289063 -24.98046875 -4.45703125 C-16.80084949 -6.92224132 -7.81688868 -2.63520246 0 0 Z " fill="#FE90C2" transform="translate(1920.3125,711.5625)"/>
<path d="M0 0 C7.68055556 6.58333333 7.68055556 6.58333333 10.5625 9.125 C16.06850433 13.9507258 21.63306587 18.70804871 27.20068359 23.46240234 C28.3608226 24.45379386 29.52007095 25.44622904 30.67822266 26.43994141 C38.3842338 33.05138822 46.24773733 39.41675055 54.26464844 45.64697266 C55.93468403 46.94907413 57.597616 48.25960394 59.2578125 49.57421875 C74.33726563 61.51099516 89.52549232 73.22730733 105.5078125 83.9375 C108.81434176 86.16297063 112.04150266 88.47671537 115.25390625 90.8359375 C121.32400168 95.27526102 127.54692686 99.46818533 133.8125 103.625 C134.39814728 104.0142868 134.98379456 104.40357361 135.58718872 104.80465698 C186.47974933 138.61760861 239.57569898 168.82072529 293.86328125 196.8203125 C298.17916035 199.04900956 302.47377112 201.31164592 306.7512207 203.61303711 C316.63241301 208.92476636 326.74460299 213.71738844 336.8828125 218.515625 C340.03364046 220.01601927 343.17432983 221.53582262 346.3125 223.0625 C357.77502069 228.63557635 369.27835639 234.0994361 380.87985229 239.37628174 C382.24898848 239.99923109 383.61758294 240.62337247 384.98562622 241.24871826 C392.42533538 244.64841034 399.88623413 247.97598155 407.43278503 251.1325531 C410.75928239 252.52577295 414.07655041 253.94031317 417.39382935 255.35531616 C418.99116207 256.02873334 420.59326728 256.69095333 422.20016479 257.34121704 C436.35381726 263.07123086 436.35381726 263.07123086 438.84765625 268.4375 C439.51342773 270.72412109 439.51342773 270.72412109 440 273 C440.46564235 274.4523645 440.93692326 275.90293433 441.4140625 277.3515625 C441.82423233 278.77417684 442.2279277 280.1986745 442.625 281.625 C442.93050781 282.69234375 442.93050781 282.69234375 443.2421875 283.78125 C443.64260454 285.18270964 444.03889306 286.58535667 444.43066406 287.98925781 C444.97861256 289.9244653 445.56282791 291.84929172 446.1484375 293.7734375 C447 297 447 297 447 301 C442.85078758 299.43766647 438.9522644 297.49221922 435.03125 295.4375 C433.65258678 294.72071148 432.27384 294.00408364 430.89501953 293.28759766 C429.81924652 292.72724823 429.81924652 292.72724823 428.72174072 292.15557861 C372.089037 262.69960269 309.94636066 237.22670741 245.046875 236.76171875 C243.92059189 236.75201553 242.79430878 236.74231232 241.63389587 236.73231506 C238.00589408 236.70746798 234.37807828 236.69480002 230.75 236.6875 C229.51512848 236.68488159 228.28025696 236.68226318 227.00796509 236.67956543 C208.32143599 236.67531286 190.36459817 237.36793314 172 241 C171.15018555 241.16016602 170.30037109 241.32033203 169.42480469 241.48535156 C164.23323082 242.47975225 159.12023994 243.69186972 154 245 C152.14454447 245.45838683 150.28907484 245.91671663 148.43359375 246.375 C103.25594573 257.69188099 61.37159014 278.25393933 22.35742188 303.47949219 C18.04541762 306.26068135 13.70973046 309.00442622 9.375 311.75 C8.55016113 312.27609863 7.72532227 312.80219727 6.87548828 313.34423828 C6.11993652 313.8236084 5.36438477 314.30297852 4.5859375 314.796875 C3.9161084 315.22323242 3.2462793 315.64958984 2.55615234 316.08886719 C1 317 1 317 0 317 C0 212.39 0 107.78 0 0 Z " fill="#FEADB0" transform="translate(0,605)"/>
<path d="M0 0 C8.60873114 -0.04718139 17.21740472 -0.0822902 25.82623482 -0.10362434 C29.82740091 -0.11388435 33.82847609 -0.12769918 37.82958984 -0.15087891 C64.83812117 -0.30285197 91.66495246 0.34898594 118.4375 4.3125 C119.56100861 4.47398529 119.56100861 4.47398529 120.70721436 4.63873291 C133.61684612 6.49828736 146.34305662 8.82472356 159 12 C160.01642578 12.24975586 161.03285156 12.49951172 162.08007812 12.75683594 C201.35201072 22.49732438 238.18536339 38.17796271 271 62 C271.57443848 62.41604492 272.14887695 62.83208984 272.74072266 63.26074219 C280.86172528 69.19559256 288.23486692 75.74242012 295.53808594 82.63964844 C297.60477193 84.56275704 299.73945517 86.40402057 301.875 88.25 C305.2779001 91.25692627 308.28064075 94.4296268 311.20703125 97.8984375 C313.13819529 100.16198054 315.15961373 102.32284382 317.1875 104.5 C341.93481937 132.02036365 359.56525475 165.98488027 373.1875 200.125 C373.56359909 201.05736984 373.56359909 201.05736984 373.94729614 202.00857544 C374.65648963 203.77492119 375.35007593 205.547509 376.04296875 207.3203125 C376.44539795 208.34398926 376.84782715 209.36766602 377.26245117 210.42236328 C378 213 378 213 377 216 C350.50614325 204.32901484 324.1148463 192.49783802 298 180 C296.26967529 179.17314697 296.26967529 179.17314697 294.50439453 178.32958984 C289.27360188 175.82837128 284.04664155 173.31942703 278.82421875 170.80078125 C274.89650191 168.90770733 270.96145658 167.03127244 267.01953125 165.16796875 C256.55220378 160.21411783 246.20660069 155.10890671 235.9921875 149.65234375 C232.36746437 147.71686179 228.72476565 145.82015347 225.0703125 143.94140625 C213.73106893 138.10860761 202.5130207 132.12700052 191.44311523 125.79663086 C185.99668866 122.68352044 180.51996788 119.64687271 174.98974609 116.68530273 C162.89675424 110.20210931 151.19588533 103.14240505 139.50390625 95.97265625 C134.41431829 92.85257154 129.29069157 89.80426211 124.125 86.8125 C97.57601946 71.33023173 72.02214064 53.82602311 47 36 C46.23397461 35.45537109 45.46794922 34.91074219 44.67871094 34.34960938 C34.9586545 27.42607107 25.39922964 20.31866655 15.94921875 13.03125 C13.4054733 11.07118279 10.84838991 9.13238583 8.26953125 7.21875 C7.70282715 6.79819336 7.13612305 6.37763672 6.55224609 5.94433594 C5.04583197 4.830127 3.53669154 3.71960666 2.02734375 2.609375 C1.35832031 2.07828125 0.68929687 1.5471875 0 1 C0 0.67 0 0.34 0 0 Z " fill="#E779ED" transform="translate(57,653)"/>
<path d="M0 0 C1.30779671 0.48192558 1.30779671 0.48192558 2.64201355 0.97358704 C5 3 5 3 5.4501133 4.9012661 C5.61953257 7.51475996 5.61754713 10.08518752 5.56762695 12.70385742 C5.56872215 14.19681084 5.56872215 14.19681084 5.56983948 15.71992493 C5.56635102 19.01565715 5.527429 22.30998289 5.48828125 25.60546875 C5.47895764 27.88803841 5.4718394 30.17061806 5.46684265 32.45320129 C5.44773752 38.46552073 5.39860557 44.47723771 5.34332275 50.48931885 C5.29220654 56.62235361 5.26934487 62.75548557 5.24414062 68.88867188 C5.19049094 80.92604618 5.10513499 92.96297302 5 105 C2.94883847 105.63886256 0.89703564 106.27566632 -1.1550293 106.91162109 C-2.29755661 107.26646576 -3.44008392 107.62131042 -4.61723328 107.98690796 C-9.30990464 109.3922984 -14.03570322 110.54694044 -18.8125 111.625 C-19.66908203 111.82867188 -20.52566406 112.03234375 -21.40820312 112.2421875 C-35.90318314 115.54564533 -50.19681275 116.37695536 -65 116.3125 C-66.27509933 116.31026428 -66.27509933 116.31026428 -67.57595825 116.3079834 C-86.37200327 116.24894769 -104.63825724 114.78127967 -122.77880859 109.61962891 C-125.45490724 108.87309798 -128.14253745 108.1771683 -130.83203125 107.48046875 C-132.86738261 106.94605505 -134.90254004 106.41090215 -136.9375 105.875 C-137.9167041 105.62129639 -138.8959082 105.36759277 -139.90478516 105.10620117 C-140.81147949 104.86232666 -141.71817383 104.61845215 -142.65234375 104.3671875 C-143.46695068 104.15175293 -144.28155762 103.93631836 -145.12084961 103.71435547 C-147 103 -147 103 -148 101 C-146.55864676 98.33427143 -145.05590598 95.80666759 -143.4375 93.25 C-142.94443359 92.45867676 -142.45136719 91.66735352 -141.94335938 90.85205078 C-140.30433206 88.22909807 -138.65254853 85.61445159 -137 83 C-135.84497497 81.15890254 -134.69002797 79.31775613 -133.53515625 77.4765625 C-86.48087578 2.73791896 -86.48087578 2.73791896 -45.9375 -6.875 C-29.78714162 -9.87307758 -14.87992698 -6.71336458 0 0 Z " fill="#5819A6" transform="translate(2555,628)"/>
<path d="M0 0 C7.68055556 6.58333333 7.68055556 6.58333333 10.5625 9.125 C16.06850433 13.9507258 21.63306587 18.70804871 27.20068359 23.46240234 C28.3608226 24.45379386 29.52007095 25.44622904 30.67822266 26.43994141 C37.51315864 32.30404086 44.43856794 38.00375092 51.59570312 43.47290039 C55.89443589 46.78887177 55.89443589 46.78887177 57 49 C56.03946465 49.07183754 56.03946465 49.07183754 55.05952454 49.14512634 C48.39202024 49.64439203 41.72485172 50.14797175 35.05786133 50.65405273 C32.5699891 50.84233379 30.08203348 51.02951637 27.59399414 51.21557617 C24.01686448 51.48327197 20.44005374 51.7549224 16.86328125 52.02734375 C15.75165115 52.10967758 14.64002106 52.19201141 13.4947052 52.27684021 C12.45400375 52.35684769 11.41330231 52.43685516 10.34106445 52.51928711 C9.4283931 52.58812607 8.51572174 52.65696503 7.57539368 52.72789001 C5.02907994 52.99692748 2.51076429 53.49784714 0 54 C0 36.18 0 18.36 0 0 Z " fill="#FEB987" transform="translate(0,605)"/>
<path d="M0 0 C0 12.21 0 24.42 0 37 C-7.875 32.5 -7.875 32.5 -10.96484375 30.203125 C-11.94614258 29.47802734 -11.94614258 29.47802734 -12.94726562 28.73828125 C-13.60404297 28.24714844 -14.26082031 27.75601563 -14.9375 27.25 C-15.62134766 26.74339844 -16.30519531 26.23679687 -17.00976562 25.71484375 C-18.67569833 24.47995657 -20.3382122 23.24045936 -22 22 C-20.60181062 18.79653117 -18.97704427 16.79068959 -16.41015625 14.43359375 C-15.70826172 13.78326172 -15.00636719 13.13292969 -14.28320312 12.46289062 C-13.55037109 11.79451172 -12.81753906 11.12613281 -12.0625 10.4375 C-10.61559736 9.10317688 -9.16897227 7.76855271 -7.72265625 6.43359375 C-6.75984741 5.55272095 -6.75984741 5.55272095 -5.77758789 4.65405273 C-4.60130573 3.55951742 -3.45096683 2.43636018 -2.32983398 1.28540039 C-1 0 -1 0 0 0 Z " fill="#FEB189" transform="translate(2560,867)"/>
</svg>
